<svg version="1.1" xmlns="http://www.w3.org/2000/svg" xmlns:xlink="http://www.w3.org/1999/xlink" width="800" height="800"><defs/><g transform="scale(2,2)"><g id="background-785eaea7"><rect fill="white" stroke="none" x="0" y="0" width="400" height="400" class="dcg-svg-background"/></g><g id="background-images-785eaea7"/><g id="graphpaper-785eaea7"><g id="axis-785eaea7"><g id="yaxis-785eaea7"><title>Y axis</title><g><path fill="none" stroke="rgb(0,0,0)" class="dcg-svg-axis-line" paint-order="fill stroke markers" d=" M 19 3 L 19 397" stroke-opacity="0.9" stroke-miterlimit="10" stroke-width="1.5" stroke-dasharray=""/><g class="dcg-svg-axis-line"><path fill="rgb(0,0,0)" stroke="rgb(0,0,0)" class="dcg-svg-axis-line" paint-order="stroke fill markers" d=" M 19 398.5 L 15.894171458769753 386.9088900845312 L 22.105828541230245 386.9088900845312 L 19 398.5 L 15.894171458769753 386.9088900845312" stroke-opacity="0.9" stroke-linejoin="round" stroke-miterlimit="10" stroke-width="1.5" stroke-dasharray="" fill-opacity="0.9"/></g><g class="dcg-svg-axis-line"><path fill="rgb(0,0,0)" stroke="rgb(0,0,0)" class="dcg-svg-axis-line" paint-order="stroke fill markers" d=" M 19 1.5 L 22.10582854123025 13.09110991546882 L 15.894171458769753 13.09110991546882 L 19 1.5 L 22.10582854123025 13.09110991546882" stroke-opacity="0.9" stroke-linejoin="round" stroke-miterlimit="10" stroke-width="1.5" stroke-dasharray="" fill-opacity="0.9"/></g></g></g><g id="xaxis-785eaea7"><title>X axis</title><g><path fill="none" stroke="rgb(0,0,0)" class="dcg-svg-axis-line" paint-order="fill stroke markers" d=" M 3 381 L 397 381" stroke-opacity="0.9" stroke-miterlimit="10" stroke-width="1.5" stroke-dasharray=""/><g class="dcg-svg-axis-line"><path fill="rgb(0,0,0)" stroke="rgb(0,0,0)" class="dcg-svg-axis-line" paint-order="stroke fill markers" d=" M 1.5 381 L 13.09110991546882 377.89417145876973 L 13.09110991546882 384.10582854123027 L 1.5 381 L 13.09110991546882 377.89417145876973" stroke-opacity="0.9" stroke-linejoin="round" stroke-miterlimit="10" stroke-width="1.5" stroke-dasharray="" fill-opacity="0.9"/></g><g class="dcg-svg-axis-line"><path fill="rgb(0,0,0)" stroke="rgb(0,0,0)" class="dcg-svg-axis-line" paint-order="stroke fill markers" d=" M 398.5 381 L 386.9088900845312 384.10582854123027 L 386.9088900845312 377.89417145876973 L 398.5 381 L 386.9088900845312 384.10582854123027" stroke-opacity="0.9" stroke-linejoin="round" stroke-miterlimit="10" stroke-width="1.5" stroke-dasharray="" fill-opacity="0.9"/></g></g></g><g><g class="dcg-svg-axis-value"><text fill="none" stroke="#ffffff" font-family="Arial" font-size="14px" font-style="normal" font-weight="normal" text-decoration="normal" x="10.154552641369047" y="396.76038095238096" text-anchor="middle" stroke-miterlimit="2" stroke-width="3" stroke-dasharray="">0</text><text fill="#000000" stroke="none" font-family="Arial" font-size="14px" font-style="normal" font-weight="normal" text-decoration="normal" x="10.154552641369047" y="396.76038095238096" text-anchor="middle">0</text></g><g><path fill="none" stroke="rgb(0,0,0)" class="dcg-svg-tickmark" paint-order="fill stroke markers" d=" M 114 378 L 114 384 M 210 378 L 210 384 M 305 378 L 305 384 M 400 378 L 400 384 M 16 286 L 22 286 M 16 190 L 22 190 M 16 95 L 22 95 M 16 0 L 22 0" stroke-opacity="0.9" stroke-miterlimit="2" stroke-width="1.5" stroke-dasharray=""/></g><g class="dcg-svg-axis-value"><text fill="none" stroke="#ffffff" font-family="Arial" font-size="14px" font-style="normal" font-weight="normal" text-decoration="normal" x="114.28571428571429" y="393.808" text-anchor="middle" stroke-miterlimit="2" stroke-width="3" stroke-dasharray="">1</text><text fill="rgb(150,150,150)" stroke="none" font-family="Arial" font-size="14px" font-style="normal" font-weight="normal" text-decoration="normal" x="114.28571428571429" y="393.808" text-anchor="middle" fill-opacity="1">1</text></g><g class="dcg-svg-axis-value"><text fill="none" stroke="#ffffff" font-family="Arial" font-size="14px" font-style="normal" font-weight="normal" text-decoration="normal" x="209.52380952380952" y="393.808" text-anchor="middle" stroke-miterlimit="2" stroke-width="3" stroke-dasharray="">2</text><text fill="rgb(150,150,150)" stroke="none" font-family="Arial" font-size="14px" font-style="normal" font-weight="normal" text-decoration="normal" x="209.52380952380952" y="393.808" text-anchor="middle" fill-opacity="1">2</text></g><g class="dcg-svg-axis-value"><text fill="none" stroke="#ffffff" font-family="Arial" font-size="14px" font-style="normal" font-weight="normal" text-decoration="normal" x="304.76190476190476" y="393.808" text-anchor="middle" stroke-miterlimit="2" stroke-width="3" stroke-dasharray="">3</text><text fill="rgb(150,150,150)" stroke="none" font-family="Arial" font-size="14px" font-style="normal" font-weight="normal" text-decoration="normal" x="304.76190476190476" y="393.808" text-anchor="middle" fill-opacity="1">3</text></g><g class="dcg-svg-axis-value dcg-svg-offcenter-axis-value"><text fill="none" stroke="#ffffff" font-family="Arial" font-size="14px" font-style="normal" font-weight="normal" text-decoration="normal" x="393.10693359375" y="393.808" text-anchor="middle" stroke-miterlimit="2" stroke-width="3" stroke-dasharray="">4</text><text fill="rgb(150,150,150)" stroke="none" font-family="Arial" font-size="14px" font-style="normal" font-weight="normal" text-decoration="normal" x="393.10693359375" y="393.808" text-anchor="middle" fill-opacity="1">4</text></g><g class="dcg-svg-axis-value"><text fill="none" stroke="#ffffff" font-family="Arial" font-size="14px" font-style="normal" font-weight="normal" text-decoration="normal" x="20.51708984375" y="289.5222857142858" text-anchor="middle" stroke-miterlimit="2" stroke-width="3" stroke-dasharray="">0.005</text><text fill="rgb(150,150,150)" stroke="none" font-family="Arial" font-size="14px" font-style="normal" font-weight="normal" text-decoration="normal" x="20.51708984375" y="289.5222857142858" text-anchor="middle" fill-opacity="1">0.005</text></g><g class="dcg-svg-axis-value"><text fill="none" stroke="#ffffff" font-family="Arial" font-size="14px" font-style="normal" font-weight="normal" text-decoration="normal" x="16.6240234375" y="194.28419047619053" text-anchor="middle" stroke-miterlimit="2" stroke-width="3" stroke-dasharray="">0.01</text><text fill="rgb(150,150,150)" stroke="none" font-family="Arial" font-size="14px" font-style="normal" font-weight="normal" text-decoration="normal" x="16.6240234375" y="194.28419047619053" text-anchor="middle" fill-opacity="1">0.01</text></g><g class="dcg-svg-axis-value"><text fill="none" stroke="#ffffff" font-family="Arial" font-size="14px" font-style="normal" font-weight="normal" text-decoration="normal" x="20.51708984375" y="99.04609523809536" text-anchor="middle" stroke-miterlimit="2" stroke-width="3" stroke-dasharray="">0.015</text><text fill="rgb(150,150,150)" stroke="none" font-family="Arial" font-size="14px" font-style="normal" font-weight="normal" text-decoration="normal" x="20.51708984375" y="99.04609523809536" text-anchor="middle" fill-opacity="1">0.015</text></g><g class="dcg-svg-axis-value dcg-svg-offcenter-axis-value"><text fill="none" stroke="#ffffff" font-family="Arial" font-size="14px" font-style="normal" font-weight="normal" text-decoration="normal" x="16.6240234375" y="13.808" text-anchor="middle" stroke-miterlimit="2" stroke-width="3" stroke-dasharray="">0.02</text><text fill="rgb(150,150,150)" stroke="none" font-family="Arial" font-size="14px" font-style="normal" font-weight="normal" text-decoration="normal" x="16.6240234375" y="13.808" text-anchor="middle" fill-opacity="1">0.02</text></g></g></g></g><g id="expressions-785eaea7"><g id="sketch-785eaea7"><title>Expression 2</title><path fill="#388c46" stroke="none" paint-order="stroke fill markers" d="" fill-opacity="0.4"/><g><path fill="none" stroke="#388c46" class="dcg-svg-curve" paint-order="fill stroke markers" d=" M -1.953125 380.95238095238096 L -1.953125 380.95238095238096 L 19.047619047619047 380.95238095238096" stroke-linecap="round" stroke-linejoin="round" stroke-miterlimit="10" stroke-width="5" stroke-dasharray=""/></g><g><path fill="none" stroke="#388c46" class="dcg-svg-curve" paint-order="fill stroke markers" d=" M 19.047619047619047 35.642133243136925 L 19.047619047619047 35.642133243136925 L 19.34661865234375 35.31087465093532 L 19.727249449441807 35.16080151663505 L 20.135498046875 35.33060303027963 L 20.529937744140625 35.81153706703134 L 20.92437744140625 36.59527048569191 L 21.318817138671875 37.67292448762112 L 21.7132568359375 39.03529551090128 L 22.107696533203125 40.67288019414781 L 22.50213623046875 42.57590028115624 L 22.896575927734375 44.73432742185298 L 23.291015625 47.13790782630622 L 23.685455322265625 49.77618672988058 L 24.07989501953125 52.6385326290021 L 24.57294464111328 56.51511741825209 L 25.065994262695312 60.70360668902475 L 25.559043884277344 65.18241584960663 L 26.052093505859375 69.92978557449055 L 26.545143127441406 74.9238497232027 L 27.136802673339844 81.2115195091863 L 27.728462219238285 87.78508643514994 L 28.320121765136722 94.60695504663926 L 29.010391235351562 102.8299650151215 L 29.799270629882816 112.50476971248361 L 30.78536987304688 124.88964158640545 L 34.433937072753906 171.06564092100703 L 35.222816467285156 180.6592931174057 L 36.011695861816406 189.97405346314804 L 36.70196533203125 197.85280461477305 L 37.392234802246094 205.44304417479978 L 37.98389434814453 211.6963331448051 L 38.57555389404297 217.69815078515916 L 39.167213439941406 223.43292321341636 L 39.758872985839844 228.886748702818 L 40.35053253173828 234.0473938855201 L 40.94219207763672 238.90428320794373 L 41.533851623535156 243.44848192866948 L 42.02690124511719 246.9911264213612 L 42.51995086669922 250.30812506116152 L 43.01300048828125 253.39684024796213 L 43.50605010986328 256.25537154076034 L 43.99909973144531 258.88253857711936 L 44.492149353027344 261.2778624442559 L 44.985198974609375 263.44154560268464 L 45.478248596191406 265.37445046442184 L 45.97129821777344 267.07807672850504 L 46.46434783935547 268.55453757701054 L 46.9573974609375 269.80653483487686 L 47.54905700683594 271.01727435334175 L 48.14071655273438 271.91617132292095 L 48.73237609863282 272.5109250216664 L 49.32403564453125 272.8102084919991 L 49.91569519042969 272.8235971108939 L 50.50735473632812 272.5614960488325 L 51.09901428222657 272.035066957626 L 51.69067382812501 271.2561542179439 L 52.28233337402344 270.23721106710195 L 52.972602844238274 268.76242654575765 L 53.66287231445313 267.00004101059096 L 54.35314178466797 264.9721635457903 L 55.04341125488282 262.7014492699519 L 55.83229064941406 259.83857845951167 L 56.62117004394532 256.72344096842346 L 57.508659362792976 252.96088137863464 L 58.49475860595704 248.51793552526573 L 59.678077697753906 242.91323107954693 L 61.354446411132805 234.6707280775315 L 64.312744140625 220.09289748343292 L 65.59467315673828 214.06320428147797 L 66.67938232421875 209.2067778423604 L 67.66548156738281 205.03342828692746 L 68.65158081054688 201.12470062767486 L 69.53907012939453 197.85659385726666 L 70.42655944824219 194.84297604883457 L 71.31404876708986 192.0977286814134 L 72.2015380859375 189.63150986100183 L 73.08902740478516 187.45183156378525 L 73.97651672363281 185.56316161789118 L 74.86400604248047 183.96704814040768 L 75.75149536132814 182.66226406400236 L 76.63898468017578 181.64496933133174 L 77.52647399902344 180.90888830460906 L 78.4139633178711 180.44549993111426 L 79.30145263671875 180.24423822182402 L 80.18894195556642 180.2927006383122 L 81.17504119873048 180.62232682683103 L 82.16114044189455 181.22164930462716 L 83.245849609375 182.16487484381108 L 84.33055877685547 183.37394961325708 L 85.51387786865234 184.95608424775 L 86.79580688476562 186.92861458736178 L 88.27495574951172 189.46439477681375 L 90.24715423583984 193.131800462327 L 95.867919921875 203.76818787885838 L 97.5442886352539 206.59370629702042 L 99.1220474243164 208.98393123697892 L 100.6011962890625 210.94827961546943 L 101.9817352294922 212.51711480406018 L 103.36227416992189 213.81703936485403 L 104.74281311035156 214.84199280455715 L 106.12335205078125 215.59243966784607 L 107.50389099121094 216.0748158373304 L 108.88442993164064 216.30089021999896 L 110.36357879638673 216.27741029231242 L 111.94133758544922 215.977222218018 L 113.61770629882812 215.3860817410054 L 115.49129486083984 214.45052567121382 L 117.66071319580077 213.09352566497878 L 120.71762084960939 210.8850091081134 L 126.43699645996094 206.7140879707258 L 129.0008544921875 205.14301711503788 L 131.26888275146484 204.01087988915 L 133.43830108642578 203.18636506360497 L 135.60771942138672 202.6259267323341 L 137.77713775634766 202.32531756810437 L 140.045166015625 202.26986143366926 L 142.51041412353516 202.47234129227934 L 145.37010192871094 202.98103473561167 L 149.01866912841797 203.9125660297114 L 159.37271118164062 206.71285163304174 L 162.92266845703125 207.3229780924113 L 166.37401580810547 207.65512922906865 L 170.0225830078125 207.7357078631834 L 174.16419982910156 207.5488943326126 L 179.78496551513672 207.0020276614459 L 190.73066711425784 205.89648575339595 L 196.351432800293 205.63666549773112 L 202.26802825927737 205.63542907054457 L 210.55126190185547 205.92989322684048 L 223.96221160888675 206.3955610977425 L 233.2315444946289 206.41592159803338 L 271.590805053711 206.17016164925215 L 298.80714416503906 206.22368299954303 L 356.78977966308594 206.20732667201017 L 401.953125 206.20415323674334" stroke-linecap="round" stroke-linejoin="round" stroke-miterlimit="10" stroke-width="5" stroke-dasharray=""/></g></g><g id="sketch-785eaea7"><title>Expression 3</title><path fill="#6042a6" stroke="none" paint-order="stroke fill markers" d="" fill-opacity="0.4"/><g><path fill="none" stroke="#6042a6" class="dcg-svg-curve" paint-order="fill stroke markers" d=" M 0 206.2035823503714 L 4.4 206.2035823503714 M 7.200000000000001 206.2035823503714 L 11.600000000000001 206.2035823503714 M 14.400000000000002 206.2035823503714 L 18.800000000000004 206.2035823503714 M 21.600000000000005 206.2035823503714 L 26.000000000000004 206.2035823503714 M 28.800000000000004 206.2035823503714 L 33.2 206.2035823503714 M 36 206.2035823503714 L 40.4 206.2035823503714 M 43.199999999999996 206.2035823503714 L 47.599999999999994 206.2035823503714 M 50.39999999999999 206.2035823503714 L 54.79999999999999 206.2035823503714 M 57.59999999999999 206.2035823503714 L 61.999999999999986 206.2035823503714 M 64.79999999999998 206.2035823503714 L 69.19999999999999 206.2035823503714 M 71.99999999999999 206.2035823503714 L 76.39999999999998 206.2035823503714 M 79.19999999999997 206.2035823503714 L 83.59999999999997 206.2035823503714 M 86.39999999999996 206.2035823503714 L 90.79999999999995 206.2035823503714 M 93.59999999999995 206.2035823503714 L 97.99999999999994 206.2035823503714 M 100.79999999999994 206.2035823503714 L 105.19999999999993 206.2035823503714 M 107.99999999999993 206.2035823503714 L 112.39999999999992 206.2035823503714 M 115.19999999999992 206.2035823503714 L 119.59999999999991 206.2035823503714 M 122.3999999999999 206.2035823503714 L 126.7999999999999 206.2035823503714 M 129.5999999999999 206.2035823503714 L 133.99999999999991 206.2035823503714 M 136.79999999999993 206.2035823503714 L 141.19999999999993 206.2035823503714 M 143.99999999999994 206.2035823503714 L 148.39999999999995 206.2035823503714 M 151.19999999999996 206.2035823503714 L 155.59999999999997 206.2035823503714 M 158.39999999999998 206.2035823503714 L 162.79999999999998 206.2035823503714 M 165.6 206.2035823503714 L 170 206.2035823503714 M 172.8 206.2035823503714 L 177.20000000000002 206.2035823503714 M 180.00000000000003 206.2035823503714 L 184.40000000000003 206.2035823503714 M 187.20000000000005 206.2035823503714 L 191.60000000000005 206.2035823503714 M 194.40000000000006 206.2035823503714 L 198.80000000000007 206.2035823503714 M 201.60000000000008 206.2035823503714 L 206.00000000000009 206.2035823503714 M 208.8000000000001 206.2035823503714 L 213.2000000000001 206.2035823503714 M 216.0000000000001 206.2035823503714 L 220.40000000000012 206.2035823503714 M 223.20000000000013 206.2035823503714 L 227.60000000000014 206.2035823503714 M 230.40000000000015 206.2035823503714 L 234.80000000000015 206.2035823503714 M 237.60000000000016 206.2035823503714 L 242.00000000000017 206.2035823503714 M 244.80000000000018 206.2035823503714 L 249.2000000000002 206.2035823503714 M 252.00000000000017 206.2035823503714 L 256.40000000000015 206.2035823503714 M 259.20000000000016 206.2035823503714 L 263.60000000000014 206.2035823503714 M 266.40000000000015 206.2035823503714 L 270.8000000000001 206.2035823503714 M 273.60000000000014 206.2035823503714 L 278.0000000000001 206.2035823503714 M 280.8000000000001 206.2035823503714 L 285.2000000000001 206.2035823503714 M 288.0000000000001 206.2035823503714 L 292.4000000000001 206.2035823503714 M 295.2000000000001 206.2035823503714 L 299.6000000000001 206.2035823503714 M 302.4000000000001 206.2035823503714 L 306.80000000000007 206.2035823503714 M 309.6000000000001 206.2035823503714 L 314.00000000000006 206.2035823503714 M 316.80000000000007 206.2035823503714 L 321.20000000000005 206.2035823503714 M 324.00000000000006 206.2035823503714 L 328.40000000000003 206.2035823503714 M 331.20000000000005 206.2035823503714 L 335.6 206.2035823503714 M 338.40000000000003 206.2035823503714 L 342.8 206.2035823503714 M 345.6 206.2035823503714 L 350 206.2035823503714 M 352.8 206.2035823503714 L 357.20000000000005 206.2035823503714 M 360.00000000000006 206.2035823503714 L 364.40000000000003 206.2035823503714 M 367.20000000000005 206.2035823503714 L 371.6 206.2035823503714 M 374.40000000000003 206.2035823503714 L 378.80000000000007 206.2035823503714 M 381.6000000000001 206.2035823503714 L 386.00000000000006 206.2035823503714 M 388.80000000000007 206.2035823503714 L 393.20000000000005 206.2035823503714 M 396.00000000000006 206.2035823503714 L 400 206.2035823503714" stroke-linecap="round" stroke-linejoin="round" stroke-miterlimit="10" stroke-opacity="0.9" stroke-dasharray=""/></g></g><g id="sketch-785eaea7"><title>(0, 1/109)</title><path fill="none" stroke="#fa7e19" class="dcg-svg-point" paint-order="fill stroke markers" d=" M 16.047619047619047 203.2035823503714 L 22.047619047619047 209.2035823503714 M 22.047619047619047 203.2035823503714 L 16.047619047619047 209.2035823503714" stroke-linecap="round" stroke-linejoin="round" stroke-miterlimit="10" stroke-width="2.25" stroke-opacity="0.9" stroke-dasharray=""/></g></g><g id="labels-785eaea7"><g transform="rotate(0,0,0) translate(19.047619047619047,206.2035823503714)"><g class="dcg-svg-label"><g transform="translate(6.9992559523809526,6.999542649628609)"><g><text fill="none" stroke="#FFF" font-family="arial, sans-serif" font-size="15.4px" font-style="normal" font-weight="400" text-decoration="normal" x="0" y="13.4888" text-anchor="start" stroke-linecap="round" stroke-linejoin="round" stroke-miterlimit="2" stroke-width="3" stroke-opacity="0.9" stroke-dasharray="">(0, 1/109)</text></g></g><g transform="translate(6.9992559523809526,6.999542649628609)"><g><text fill="rgb(250, 126, 25)" stroke="none" font-family="arial, sans-serif" font-size="15.4px" font-style="normal" font-weight="400" text-decoration="normal" x="0" y="13.4888" text-anchor="start" fill-opacity="0.9">(0, 1/109)</text></g></g></g></g></g></g></svg>